<svg width="345" height="64" viewBox="0 0 345 64" fill="none" xmlns="http://www.w3.org/2000/svg">
<rect width="345" height="64" rx="15" fill="#F3F4F5"/>
<g opacity="0.01">
<rect x="305" y="20" width="24" height="24" fill="#F7F9FC"/>
</g>
<path d="M314.22 36.2197C313.927 36.5126 313.927 36.9874 314.22 37.2803C314.513 37.5732 314.987 37.5732 315.28 37.2803L320.28 32.2803C320.573 31.9874 320.573 31.5126 320.28 31.2197L315.28 26.2197C314.987 25.9268 314.513 25.9268 314.22 26.2197C313.927 26.5126 313.927 26.9874 314.22 27.2803L318.689 31.75L314.22 36.2197Z" fill="black"/>
<g opacity="0.01">
<rect x="16" y="20" width="24" height="24" fill="#F7F9FC"/>
</g>
<path fill-rule="evenodd" clip-rule="evenodd" d="M28.0418 24.6288C23.9935 24.6288 20.7124 27.9099 20.7124 31.9582C20.7124 33.3638 21.1074 34.675 21.7923 35.7898L22.013 36.149L20.6342 39.3658L23.851 37.987L24.211 38.2077C25.325 38.8926 26.6362 39.2876 28.0418 39.2876C32.0901 39.2876 35.3712 36.0065 35.3712 31.9582C35.3712 27.9099 32.0901 24.6288 28.0418 24.6288ZM19.0836 31.9582C19.0836 27.0108 23.0945 23 28.0418 23C32.9892 23 37 27.0108 37 31.9582C37 36.9055 32.9892 40.9164 28.0418 40.9164C26.4798 40.9164 25.0091 40.5157 23.7289 39.8121L21.2759 40.8634C19.9241 41.4425 18.5575 40.0759 19.1366 38.7241L20.1879 36.2711C19.4843 34.9909 19.0836 33.5202 19.0836 31.9582ZM23.9699 30.3294C23.9699 29.8799 24.3348 29.515 24.7843 29.515H27.2274C27.677 29.515 28.0418 29.8799 28.0418 30.3294C28.0418 30.779 27.677 31.1438 27.2274 31.1438H24.7843C24.3348 31.1438 23.9699 30.779 23.9699 30.3294ZM23.9699 33.5869C23.9699 33.1374 24.3348 32.7726 24.7843 32.7726H31.2993C31.7489 32.7726 32.1137 33.1374 32.1137 33.5869C32.1137 34.0365 31.7489 34.4013 31.2993 34.4013H24.7843C24.3348 34.4013 23.9699 34.0365 23.9699 33.5869Z" fill="black"/>
</svg>
