<svg width="106" height="137" viewBox="0 0 106 137" fill="none" xmlns="http://www.w3.org/2000/svg">
<g clip-path="url(#clip0_9_2)">
<path d="M68 0H38C24.1929 0 13 11.1929 13 25V55C13 68.8071 24.1929 80 38 80H68C81.8071 80 93 68.8071 93 55V25C93 11.1929 81.8071 0 68 0Z" fill="white"/>
<path d="M12.1274 114.368C12.1434 114.464 12.1514 114.56 12.1514 114.656C12.1674 114.736 12.1754 114.832 12.1754 114.944C12.1754 115.136 12.1194 115.312 12.0074 115.472C11.9594 115.552 11.8954 115.632 11.8154 115.712C11.7354 115.776 11.6394 115.832 11.5274 115.88C11.1274 116.104 10.7034 116.184 10.2554 116.12C10.0314 116.056 9.83138 115.952 9.65538 115.808C9.62338 115.776 9.59938 115.76 9.58337 115.76C9.56738 115.744 9.55138 115.72 9.53538 115.688C9.51938 115.672 9.50338 115.656 9.48738 115.64C9.47138 115.608 9.44738 115.584 9.41538 115.568C9.33538 115.488 9.27138 115.416 9.22338 115.352C9.17538 115.272 9.12738 115.192 9.07938 115.112C9.04738 115.032 9.00738 114.96 8.95938 114.896C8.92738 114.816 8.88738 114.736 8.83938 114.656C8.80738 114.592 8.77538 114.536 8.74338 114.488C8.71138 114.424 8.68738 114.36 8.67138 114.296C8.60738 114.152 8.56738 114.024 8.55138 113.912L8.04738 112.736C6.94338 112.736 5.83938 112.744 4.73538 112.76C3.64738 112.76 2.55138 112.752 1.44738 112.736L0.943375 113.912C0.911375 113.976 0.887375 114.04 0.871375 114.104C0.871375 114.168 0.855375 114.232 0.823375 114.296C0.791375 114.36 0.759375 114.424 0.727375 114.488C0.711375 114.536 0.687375 114.592 0.655375 114.656C0.607375 114.736 0.559375 114.816 0.511375 114.896C0.479375 114.96 0.439375 115.032 0.391375 115.112C0.359375 115.192 0.319375 115.272 0.271375 115.352C0.223375 115.416 0.159375 115.488 0.079375 115.568C0.0473752 115.584 0.0233753 115.608 0.00737524 115.64C-0.00862479 115.656 -0.0246248 115.672 -0.0406249 115.688C-0.0566249 115.72 -0.0726249 115.744 -0.088625 115.76C-0.104625 115.76 -0.128625 115.776 -0.160625 115.808C-0.336625 115.952 -0.536625 116.056 -0.760625 116.12C-1.20862 116.184 -1.63262 116.104 -2.03262 115.88C-2.14462 115.832 -2.24062 115.776 -2.32062 115.712C-2.40062 115.632 -2.46462 115.552 -2.51262 115.472C-2.62462 115.312 -2.68062 115.136 -2.68062 114.944C-2.68062 114.832 -2.68062 114.736 -2.68062 114.656C-2.66462 114.56 -2.64862 114.464 -2.63262 114.368C-2.60062 114.224 -2.56062 114.08 -2.51262 113.936C-2.46462 113.792 -2.44062 113.72 -2.44062 113.72L2.55138 101.432L2.69537 101.048C2.72738 100.952 2.76738 100.864 2.81538 100.784C2.86338 100.704 2.90338 100.608 2.93538 100.496C3.01538 100.288 3.10338 100.104 3.19938 99.944C3.24738 99.848 3.30338 99.76 3.36738 99.68C3.43138 99.6 3.49538 99.52 3.55938 99.44C3.65538 99.312 3.79138 99.208 3.96738 99.128C4.19138 99.048 4.44738 99.008 4.73538 99.008C5.03938 99.008 5.30338 99.048 5.52738 99.128C5.70338 99.208 5.83938 99.312 5.93538 99.44C6.04738 99.584 6.16738 99.752 6.29538 99.944C6.39138 100.104 6.47938 100.288 6.55938 100.496C6.59138 100.608 6.63138 100.704 6.67938 100.784C6.72738 100.864 6.76738 100.952 6.79938 101.048L6.94338 101.432L11.9354 113.72C11.9354 113.72 11.9594 113.792 12.0074 113.936C12.0554 114.08 12.0954 114.224 12.1274 114.368ZM6.43938 108.488C6.23138 108.024 6.01538 107.544 5.79138 107.048C5.58338 106.552 5.35938 106.048 5.11938 105.536C5.05538 105.392 4.99138 105.248 4.92738 105.104C4.86338 104.944 4.79938 104.792 4.73538 104.648C4.68738 104.792 4.63138 104.944 4.56738 105.104C4.50338 105.248 4.43938 105.392 4.37538 105.536C4.13538 106.048 3.90338 106.552 3.67938 107.048C3.47138 107.544 3.26338 108.024 3.05538 108.488L2.62338 109.544H6.87138L6.43938 108.488ZM17.2926 114.08C17.2766 114.16 17.2606 114.24 17.2446 114.32C17.2446 114.384 17.2446 114.456 17.2446 114.536L17.1006 115.04C17.0686 115.104 17.0446 115.144 17.0286 115.16L16.9566 115.304C16.8766 115.48 16.7326 115.624 16.5246 115.736C16.1406 115.928 15.7326 115.976 15.3006 115.88C15.0286 115.848 14.8126 115.768 14.6526 115.64C14.4926 115.528 14.3806 115.392 14.3166 115.232C14.2526 115.072 14.2046 114.912 14.1726 114.752C14.1246 114.592 14.1006 114.448 14.1006 114.32V100.88C14.1006 100.768 14.1006 100.672 14.1006 100.592C14.1166 100.496 14.1326 100.408 14.1486 100.328C14.1646 100.216 14.1806 100.12 14.1966 100.04C14.2286 99.96 14.2606 99.872 14.2926 99.776C14.3406 99.616 14.4286 99.488 14.5566 99.392C14.7486 99.248 14.9326 99.168 15.1086 99.152C15.2206 99.12 15.3246 99.104 15.4206 99.104C15.5166 99.088 15.6286 99.08 15.7566 99.08C15.9806 99.08 16.2366 99.144 16.5246 99.272C16.7486 99.4 16.9086 99.576 17.0046 99.8C17.1646 100.12 17.2446 100.416 17.2446 100.688C17.2606 100.848 17.2686 101.088 17.2686 101.408C17.2846 101.728 17.2926 101.968 17.2926 102.128V102.224C17.3246 102.736 17.3406 103.232 17.3406 103.712C17.3406 104.176 17.3326 104.688 17.3166 105.248C17.3166 105.792 17.3086 106.32 17.2926 106.832C17.2926 107.328 17.2926 107.824 17.2926 108.32V113.36C17.2926 113.424 17.2926 113.488 17.2926 113.552C17.3086 113.6 17.3166 113.656 17.3166 113.72C17.3166 113.88 17.3086 114 17.2926 114.08ZM24.5719 110.48C24.9239 110.848 25.1799 111.12 25.3399 111.296C25.5159 111.456 25.6359 111.576 25.6999 111.656C25.7799 111.736 25.8359 111.784 25.8679 111.8C25.8999 111.816 25.9559 111.864 26.0359 111.944C26.1159 112.024 26.2439 112.152 26.4199 112.328C26.5959 112.488 26.8599 112.752 27.2119 113.12C27.4999 113.408 27.7319 113.744 27.9079 114.128C28.0999 114.496 28.0839 114.896 27.8599 115.328C27.7319 115.552 27.5879 115.712 27.4279 115.808C27.2679 115.888 27.0919 115.92 26.8999 115.904C26.7239 115.888 26.5319 115.832 26.3239 115.736C26.1319 115.64 25.9399 115.52 25.7479 115.376C25.3799 115.104 25.0279 114.792 24.6919 114.44C24.3559 114.072 24.0839 113.792 23.8759 113.6C23.7319 113.456 23.6439 113.36 23.6119 113.312C23.5799 113.28 23.5479 113.256 23.5159 113.24C23.4839 113.208 23.4519 113.176 23.4199 113.144C23.3079 113.032 23.1879 112.92 23.0599 112.808C22.9319 112.696 22.8039 112.576 22.6759 112.448V113.384C22.6759 113.56 22.6839 113.688 22.6999 113.768C22.6999 113.928 22.6919 114.048 22.6759 114.128C22.6279 114.304 22.6039 114.472 22.6039 114.632C22.5879 114.712 22.5719 114.792 22.5559 114.872C22.5399 114.936 22.5159 115.008 22.4839 115.088C22.4679 115.12 22.4519 115.144 22.4359 115.16C22.4359 115.176 22.4359 115.2 22.4359 115.232C22.4199 115.264 22.4039 115.288 22.3879 115.304C22.3879 115.32 22.3799 115.344 22.3639 115.376C22.2839 115.536 22.1559 115.688 21.9799 115.832C21.6759 116.008 21.2999 116.056 20.8519 115.976C20.6119 115.928 20.4279 115.84 20.2999 115.712C20.1559 115.616 20.0599 115.48 20.0119 115.304C19.9799 115.224 19.9479 115.144 19.9159 115.064C19.8999 114.968 19.8759 114.88 19.8439 114.8C19.8119 114.72 19.7959 114.648 19.7959 114.584C19.7959 114.504 19.7959 114.44 19.7959 114.392V100.736C19.7959 100.64 19.7959 100.544 19.7959 100.448C19.7959 100.352 19.8039 100.256 19.8199 100.16C19.8359 100.064 19.8519 99.976 19.8679 99.896C19.8999 99.8 19.9319 99.712 19.9639 99.632C20.0279 99.472 20.1079 99.344 20.2039 99.248C20.2839 99.168 20.3639 99.112 20.4439 99.08C20.5399 99.032 20.6279 98.992 20.7079 98.96C20.7879 98.944 20.8759 98.936 20.9719 98.936C21.0839 98.92 21.1879 98.912 21.2839 98.912C21.5079 98.912 21.7319 98.976 21.9559 99.104C22.1639 99.248 22.3159 99.432 22.4119 99.656C22.5399 99.96 22.6039 100.256 22.6039 100.544C22.6199 100.704 22.6359 100.952 22.6519 101.288C22.6679 101.608 22.6759 101.848 22.6759 102.008V102.104C22.6919 102.632 22.6999 103.136 22.6999 103.616C22.6999 104.096 22.6999 104.616 22.6999 105.176C22.6839 105.736 22.6759 106.272 22.6759 106.784C22.6759 107.28 22.6759 107.776 22.6759 108.272V108.536C22.8039 108.408 22.9319 108.288 23.0599 108.176C23.1879 108.064 23.3079 107.944 23.4199 107.816C23.4839 107.768 23.5479 107.712 23.6119 107.648L23.8759 107.384C24.0839 107.176 24.3559 106.896 24.6919 106.544C25.0279 106.176 25.3799 105.856 25.7479 105.584C26.1479 105.296 26.5319 105.12 26.8999 105.056C27.2839 104.992 27.6039 105.184 27.8599 105.632C28.0839 106.064 28.0999 106.472 27.9079 106.856C27.7319 107.224 27.4999 107.568 27.2119 107.888C26.8599 108.256 26.5959 108.528 26.4199 108.704C26.2439 108.864 26.1159 108.984 26.0359 109.064C25.9559 109.128 25.8999 109.168 25.8679 109.184C25.8359 109.2 25.7799 109.248 25.6999 109.328C25.6359 109.392 25.5159 109.512 25.3399 109.688C25.1799 109.848 24.9239 110.112 24.5719 110.48ZM38.2718 112.712C38.4638 112.664 38.6558 112.632 38.8478 112.616C39.0558 112.6 39.2398 112.624 39.3998 112.688C39.5758 112.752 39.7198 112.864 39.8318 113.024C39.9438 113.168 39.9998 113.376 39.9998 113.648C39.9998 113.84 39.9518 114.024 39.8558 114.2C39.7598 114.376 39.6398 114.536 39.4958 114.68C39.3518 114.824 39.1918 114.952 39.0158 115.064C38.8398 115.16 38.6718 115.24 38.5118 115.304C38.0478 115.512 37.5118 115.672 36.9038 115.784C36.3118 115.896 35.6958 115.936 35.0558 115.904C34.1918 115.872 33.3598 115.704 32.5598 115.4C31.7758 115.08 31.1598 114.56 30.7118 113.84C30.2958 113.136 30.0478 112.352 29.9678 111.488C29.8878 110.624 29.9278 109.808 30.0878 109.04C30.2638 108.112 30.5598 107.36 30.9758 106.784C31.4078 106.192 31.9198 105.72 32.5118 105.368C33.2318 104.952 34.0398 104.736 34.9358 104.72C35.8318 104.704 36.6878 104.88 37.5038 105.248C38.0478 105.488 38.5358 105.816 38.9678 106.232C39.3998 106.632 39.7278 107.12 39.9518 107.696C40.0158 107.84 40.0638 108.016 40.0958 108.224C40.1438 108.432 40.1758 108.656 40.1918 108.896C40.2078 109.12 40.2078 109.344 40.1918 109.568C40.1758 109.792 40.1358 109.992 40.0718 110.168C39.9758 110.456 39.8558 110.68 39.7118 110.84C39.5678 111 39.3838 111.12 39.1598 111.2C38.9358 111.28 38.6638 111.336 38.3438 111.368C38.0398 111.384 37.6718 111.4 37.2398 111.416C36.8558 111.432 36.4958 111.44 36.1598 111.44C35.8238 111.44 35.4798 111.44 35.1278 111.44C34.7758 111.424 34.4078 111.416 34.0238 111.416C33.6558 111.4 33.2398 111.384 32.7758 111.368C32.7278 111.688 32.7678 111.968 32.8958 112.208C33.0398 112.432 33.2318 112.624 33.4718 112.784C33.7118 112.928 33.9838 113.04 34.2878 113.12C34.5918 113.2 34.8878 113.248 35.1758 113.264C35.7198 113.296 36.2398 113.256 36.7358 113.144C37.2318 113.016 37.7438 112.872 38.2718 112.712ZM37.2398 108.056C36.9358 107.704 36.6158 107.448 36.2798 107.288C36.0238 107.176 35.7518 107.128 35.4638 107.144C35.1918 107.144 34.9278 107.184 34.6718 107.264C34.2078 107.376 33.8158 107.616 33.4958 107.984C33.4638 108.016 33.4078 108.096 33.3278 108.224C33.2478 108.336 33.1678 108.456 33.0878 108.584C33.0238 108.712 32.9758 108.832 32.9438 108.944C32.9118 109.056 32.9278 109.112 32.9918 109.112H37.6958C37.6798 108.888 37.6398 108.704 37.5758 108.56C37.5118 108.4 37.3998 108.232 37.2398 108.056ZM59.2679 99.968C59.3319 100.272 59.3319 100.592 59.2679 100.928C59.2359 101.088 59.2039 101.248 59.1719 101.408C59.1559 101.552 59.1319 101.704 59.0999 101.864L59.0759 101.96C58.8519 102.952 58.5959 104 58.3079 105.104C58.0359 106.192 57.7879 107.224 57.5639 108.2C57.3719 109 57.1719 109.88 56.9639 110.84C56.7559 111.8 56.5399 112.68 56.3159 113.48C56.2359 113.752 56.1479 114.024 56.0519 114.296C55.9719 114.568 55.8679 114.84 55.7399 115.112C55.6279 115.352 55.4919 115.568 55.3319 115.76C55.1879 115.936 55.0199 116.064 54.8279 116.144C54.6359 116.24 54.4279 116.272 54.2039 116.24C53.9959 116.224 53.7639 116.128 53.5079 115.952C53.1239 115.68 52.8359 115.304 52.6439 114.824C52.4679 114.344 52.2839 113.904 52.0919 113.504C52.0279 113.392 51.9319 113.144 51.8039 112.76C51.6759 112.376 51.5399 111.96 51.3959 111.512C51.2519 111.048 51.1079 110.608 50.9639 110.192C50.8359 109.76 50.7239 109.44 50.6279 109.232C50.4839 109.584 50.3399 109.984 50.1959 110.432C50.0519 110.88 49.9159 111.32 49.7879 111.752C49.6599 112.184 49.5399 112.576 49.4279 112.928C49.3319 113.264 49.2599 113.512 49.2119 113.672C49.0839 113.992 48.9399 114.344 48.7799 114.728C48.6359 115.112 48.4519 115.44 48.2279 115.712C48.0199 115.984 47.7639 116.16 47.4599 116.24C47.1559 116.336 46.7959 116.248 46.3799 115.976C46.0599 115.784 45.8359 115.512 45.7079 115.16C45.6279 114.936 45.5479 114.72 45.4679 114.512C45.3879 114.304 45.3239 114.088 45.2759 113.864L44.7959 112.064L43.8119 108.2C43.6839 107.704 43.5559 107.2 43.4279 106.688C43.3159 106.16 43.1799 105.616 43.0199 105.056C42.9399 104.784 42.8679 104.52 42.8039 104.264C42.7559 103.992 42.6999 103.704 42.6359 103.4C42.5879 103.08 42.5239 102.72 42.4439 102.32C42.3799 101.92 42.2999 101.456 42.2039 100.928C42.1719 100.752 42.1479 100.592 42.1319 100.448C42.1319 100.288 42.1479 100.128 42.1799 99.968C42.2119 99.728 42.3239 99.52 42.5159 99.344C42.5959 99.264 42.6919 99.2 42.8039 99.152C42.9159 99.104 43.0359 99.064 43.1639 99.032C43.3559 98.968 43.5559 98.936 43.7639 98.936C43.9559 98.936 44.1559 99 44.3639 99.128C44.5079 99.208 44.6199 99.312 44.6999 99.44L44.9879 99.944C45.0199 100.056 45.0519 100.16 45.0839 100.256C45.1159 100.336 45.1479 100.424 45.1799 100.52C45.2119 100.632 45.2359 100.736 45.2519 100.832C45.2679 100.912 45.2839 100.992 45.2999 101.072C45.4439 101.904 45.6199 102.712 45.8279 103.496C46.0359 104.28 46.2279 105.032 46.4039 105.752C46.4679 106.04 46.5479 106.4 46.6439 106.832C46.7399 107.248 46.8359 107.688 46.9319 108.152C47.0279 108.6 47.1239 109.032 47.2199 109.448C47.3159 109.864 47.4119 110.192 47.5079 110.432C47.7159 109.712 47.9239 108.992 48.1319 108.272C48.3559 107.552 48.5959 106.824 48.8519 106.088C48.9799 105.704 49.1079 105.36 49.2359 105.056C49.3799 104.736 49.5399 104.472 49.7159 104.264C49.8919 104.056 50.0919 103.92 50.3159 103.856C50.5399 103.792 50.8039 103.816 51.1079 103.928C51.3799 104.04 51.6199 104.28 51.8279 104.648C52.0359 105.016 52.2199 105.392 52.3799 105.776C52.5239 106.128 52.6599 106.504 52.7879 106.904C52.9319 107.288 53.0679 107.672 53.1959 108.056C53.3399 108.424 53.4759 108.776 53.6039 109.112C53.7319 109.448 53.8599 109.736 53.9879 109.976C54.0359 109.8 54.0919 109.576 54.1559 109.304C54.2199 109.032 54.2839 108.744 54.3479 108.44C54.4279 108.12 54.4999 107.808 54.5639 107.504C54.6279 107.2 54.6919 106.92 54.7559 106.664C54.9639 105.8 55.1799 104.936 55.4039 104.072C55.6279 103.192 55.8439 102.328 56.0519 101.48L56.1719 101.072C56.2039 100.992 56.2199 100.912 56.2199 100.832C56.2359 100.736 56.2599 100.632 56.2919 100.52C56.3239 100.424 56.3559 100.336 56.3879 100.256C56.4199 100.16 56.4519 100.056 56.4839 99.944C56.5159 99.864 56.5479 99.784 56.5799 99.704C56.6279 99.608 56.6839 99.52 56.7479 99.44C56.7959 99.36 56.8519 99.296 56.9159 99.248C56.9799 99.2 57.0439 99.16 57.1079 99.128C57.3319 99 57.5239 98.936 57.6839 98.936C57.8919 98.936 58.0919 98.968 58.2839 99.032C58.5399 99.08 58.7719 99.184 58.9799 99.344C59.1399 99.504 59.2359 99.712 59.2679 99.968ZM62.7758 105.896C63.2558 105.656 63.7598 105.488 64.2878 105.392C64.8158 105.28 65.3358 105.256 65.8478 105.32C66.3758 105.368 66.8798 105.504 67.3598 105.728C67.8398 105.936 68.2878 106.24 68.7038 106.64C69.1198 107.056 69.4398 107.512 69.6638 108.008C69.8878 108.504 70.0478 109.056 70.1438 109.664C70.2078 110.08 70.3118 110.464 70.4558 110.816C70.5998 111.168 70.7518 111.52 70.9118 111.872C71.0878 112.224 71.2478 112.576 71.3918 112.928C71.5518 113.28 71.6798 113.648 71.7758 114.032C71.8558 114.4 71.8238 114.76 71.6798 115.112C71.5518 115.448 71.2798 115.656 70.8638 115.736C70.6238 115.784 70.3918 115.768 70.1678 115.688C69.9598 115.592 69.7678 115.464 69.5918 115.304C69.4158 115.128 69.2558 114.944 69.1118 114.752C68.9838 114.544 68.8638 114.352 68.7518 114.176C68.3838 114.656 67.9838 115.032 67.5518 115.304C67.1198 115.56 66.5998 115.728 65.9918 115.808C65.4798 115.872 64.9918 115.888 64.5278 115.856C64.0638 115.824 63.5678 115.736 63.0398 115.592C62.3518 115.416 61.7838 115.112 61.3358 114.68C60.9038 114.232 60.5678 113.72 60.3278 113.144C60.1038 112.552 59.9838 111.92 59.9678 111.248C59.9518 110.576 60.0318 109.912 60.2078 109.256C60.4318 108.392 60.7678 107.688 61.2158 107.144C61.6638 106.6 62.1838 106.184 62.7758 105.896ZM63.3758 108.704C63.1518 108.928 62.9758 109.192 62.8478 109.496C62.7198 109.8 62.6398 110.12 62.6078 110.456C62.5918 110.792 62.6238 111.128 62.7038 111.464C62.7838 111.8 62.9118 112.096 63.0878 112.352C63.2478 112.576 63.5198 112.768 63.9038 112.928C64.2878 113.072 64.6878 113.16 65.1038 113.192C65.5838 113.224 65.9998 113.096 66.3518 112.808C66.7198 112.52 66.9918 112.16 67.1678 111.728C67.3598 111.28 67.4478 110.808 67.4318 110.312C67.4158 109.8 67.2798 109.336 67.0238 108.92C66.8318 108.616 66.5758 108.392 66.2558 108.248C65.9518 108.104 65.6238 108.032 65.2718 108.032C64.9198 108.016 64.5678 108.072 64.2158 108.2C63.8798 108.312 63.5998 108.48 63.3758 108.704ZM76.9645 114.08C76.9485 114.16 76.9325 114.24 76.9165 114.32C76.9165 114.384 76.9165 114.456 76.9165 114.536L76.7725 115.04C76.7405 115.104 76.7165 115.144 76.7005 115.16L76.6285 115.304C76.5485 115.48 76.4045 115.624 76.1965 115.736C75.8125 115.928 75.4045 115.976 74.9725 115.88C74.7005 115.848 74.4845 115.768 74.3245 115.64C74.1645 115.528 74.0525 115.392 73.9885 115.232C73.9245 115.072 73.8765 114.912 73.8445 114.752C73.7965 114.592 73.7725 114.448 73.7725 114.32V100.88C73.7725 100.768 73.7725 100.672 73.7725 100.592C73.7885 100.496 73.8045 100.408 73.8205 100.328C73.8365 100.216 73.8525 100.12 73.8685 100.04C73.9005 99.96 73.9325 99.872 73.9645 99.776C74.0125 99.616 74.1005 99.488 74.2285 99.392C74.4205 99.248 74.6045 99.168 74.7805 99.152C74.8925 99.12 74.9965 99.104 75.0925 99.104C75.1885 99.088 75.3005 99.08 75.4285 99.08C75.6525 99.08 75.9085 99.144 76.1965 99.272C76.4205 99.4 76.5805 99.576 76.6765 99.8C76.8365 100.12 76.9165 100.416 76.9165 100.688C76.9325 100.848 76.9405 101.088 76.9405 101.408C76.9565 101.728 76.9645 101.968 76.9645 102.128V102.224C76.9965 102.736 77.0125 103.232 77.0125 103.712C77.0125 104.176 77.0045 104.688 76.9885 105.248C76.9885 105.792 76.9805 106.32 76.9645 106.832C76.9645 107.328 76.9645 107.824 76.9645 108.32V113.36C76.9645 113.424 76.9645 113.488 76.9645 113.552C76.9805 113.6 76.9885 113.656 76.9885 113.72C76.9885 113.88 76.9805 114 76.9645 114.08ZM83.152 114.08C83.136 114.16 83.12 114.24 83.104 114.32C83.104 114.384 83.104 114.456 83.104 114.536L82.96 115.04C82.928 115.104 82.904 115.144 82.888 115.16L82.816 115.304C82.736 115.48 82.592 115.624 82.384 115.736C82 115.928 81.592 115.976 81.16 115.88C80.888 115.848 80.672 115.768 80.512 115.64C80.352 115.528 80.24 115.392 80.176 115.232C80.112 115.072 80.064 114.912 80.032 114.752C79.984 114.592 79.96 114.448 79.96 114.32V100.88C79.96 100.768 79.96 100.672 79.96 100.592C79.976 100.496 79.992 100.408 80.008 100.328C80.024 100.216 80.04 100.12 80.056 100.04C80.088 99.96 80.12 99.872 80.152 99.776C80.2 99.616 80.288 99.488 80.416 99.392C80.608 99.248 80.792 99.168 80.968 99.152C81.08 99.12 81.184 99.104 81.28 99.104C81.376 99.088 81.488 99.08 81.616 99.08C81.84 99.08 82.096 99.144 82.384 99.272C82.608 99.4 82.768 99.576 82.864 99.8C83.024 100.12 83.104 100.416 83.104 100.688C83.12 100.848 83.128 101.088 83.128 101.408C83.144 101.728 83.152 101.968 83.152 102.128V102.224C83.184 102.736 83.2 103.232 83.2 103.712C83.2 104.176 83.192 104.688 83.176 105.248C83.176 105.792 83.168 106.32 83.152 106.832C83.152 107.328 83.152 107.824 83.152 108.32V113.36C83.152 113.424 83.152 113.488 83.152 113.552C83.168 113.6 83.176 113.656 83.176 113.72C83.176 113.88 83.168 114 83.152 114.08ZM93.4203 112.712C93.6123 112.664 93.8043 112.632 93.9963 112.616C94.2043 112.6 94.3883 112.624 94.5483 112.688C94.7243 112.752 94.8683 112.864 94.9803 113.024C95.0923 113.168 95.1483 113.376 95.1483 113.648C95.1483 113.84 95.1003 114.024 95.0043 114.2C94.9083 114.376 94.7883 114.536 94.6443 114.68C94.5003 114.824 94.3403 114.952 94.1643 115.064C93.9883 115.16 93.8203 115.24 93.6603 115.304C93.1963 115.512 92.6603 115.672 92.0523 115.784C91.4603 115.896 90.8443 115.936 90.2043 115.904C89.3403 115.872 88.5083 115.704 87.7083 115.4C86.9243 115.08 86.3083 114.56 85.8603 113.84C85.4443 113.136 85.1963 112.352 85.1163 111.488C85.0363 110.624 85.0763 109.808 85.2363 109.04C85.4123 108.112 85.7083 107.36 86.1243 106.784C86.5563 106.192 87.0683 105.72 87.6603 105.368C88.3803 104.952 89.1883 104.736 90.0843 104.72C90.9803 104.704 91.8363 104.88 92.6523 105.248C93.1963 105.488 93.6843 105.816 94.1163 106.232C94.5483 106.632 94.8763 107.12 95.1003 107.696C95.1643 107.84 95.2123 108.016 95.2443 108.224C95.2923 108.432 95.3243 108.656 95.3403 108.896C95.3563 109.12 95.3563 109.344 95.3403 109.568C95.3243 109.792 95.2843 109.992 95.2203 110.168C95.1243 110.456 95.0043 110.68 94.8603 110.84C94.7163 111 94.5323 111.12 94.3083 111.2C94.0843 111.28 93.8123 111.336 93.4923 111.368C93.1883 111.384 92.8203 111.4 92.3883 111.416C92.0043 111.432 91.6443 111.44 91.3083 111.44C90.9723 111.44 90.6283 111.44 90.2763 111.44C89.9243 111.424 89.5563 111.416 89.1723 111.416C88.8043 111.4 88.3883 111.384 87.9243 111.368C87.8763 111.688 87.9163 111.968 88.0443 112.208C88.1883 112.432 88.3803 112.624 88.6203 112.784C88.8603 112.928 89.1323 113.04 89.4363 113.12C89.7403 113.2 90.0363 113.248 90.3242 113.264C90.8683 113.296 91.3883 113.256 91.8843 113.144C92.3803 113.016 92.8923 112.872 93.4203 112.712ZM92.3883 108.056C92.0843 107.704 91.7643 107.448 91.4283 107.288C91.1723 107.176 90.9003 107.128 90.6123 107.144C90.3403 107.144 90.0763 107.184 89.8203 107.264C89.3563 107.376 88.9643 107.616 88.6443 107.984C88.6123 108.016 88.5563 108.096 88.4763 108.224C88.3963 108.336 88.3163 108.456 88.2363 108.584C88.1723 108.712 88.1243 108.832 88.0923 108.944C88.0603 109.056 88.0763 109.112 88.1403 109.112H92.8443C92.8283 108.888 92.7883 108.704 92.7243 108.56C92.6603 108.4 92.5483 108.232 92.3883 108.056ZM106.567 105.416C106.695 105.72 106.703 106.056 106.591 106.424C106.495 106.792 106.311 107.032 106.039 107.144C105.895 107.208 105.703 107.264 105.463 107.312C105.223 107.344 104.959 107.376 104.671 107.408C104.399 107.44 104.127 107.464 103.855 107.48C103.583 107.496 103.351 107.504 103.159 107.504C103.175 107.984 103.191 108.48 103.207 108.992C103.223 109.488 103.239 109.976 103.255 110.456C103.271 110.936 103.279 111.4 103.279 111.848C103.279 112.28 103.271 112.672 103.255 113.024C103.255 113.264 103.255 113.544 103.255 113.864C103.255 114.168 103.231 114.464 103.183 114.752C103.151 115.04 103.095 115.296 103.015 115.52C102.935 115.728 102.815 115.864 102.655 115.928C102.159 116.136 101.703 116.192 101.287 116.096C100.887 116.016 100.599 115.848 100.423 115.592C100.295 115.384 100.199 115.144 100.135 114.872C100.071 114.584 100.023 114.296 99.9914 114.008C99.9754 113.704 99.9674 113.416 99.9674 113.144C99.9834 112.856 99.9914 112.608 99.9914 112.4C100.007 111.728 100.015 110.968 100.015 110.12C100.031 109.256 100.039 108.392 100.039 107.528H99.6794C99.4874 107.528 99.2394 107.528 98.9354 107.528C98.6474 107.512 98.3514 107.488 98.0474 107.456C97.7594 107.408 97.4874 107.352 97.2314 107.288C96.9754 107.208 96.7914 107.096 96.6794 106.952C96.5034 106.744 96.3914 106.52 96.3434 106.28C96.3114 106.04 96.3274 105.816 96.3914 105.608C96.4714 105.384 96.5914 105.192 96.7514 105.032C96.9114 104.856 97.0954 104.744 97.3034 104.696C97.5914 104.616 97.9994 104.576 98.5274 104.576C99.0554 104.56 99.5514 104.56 100.015 104.576C99.9994 104.416 99.9914 104.264 99.9914 104.12C99.9914 103.96 99.9834 103.808 99.9674 103.664C99.9514 103.472 99.9434 103.232 99.9434 102.944C99.9434 102.64 99.9594 102.344 99.9914 102.056C100.039 101.752 100.111 101.472 100.207 101.216C100.303 100.944 100.439 100.736 100.615 100.592C100.855 100.4 101.095 100.296 101.335 100.28C101.591 100.248 101.823 100.28 102.031 100.376C102.255 100.472 102.439 100.616 102.583 100.808C102.743 100.984 102.855 101.184 102.919 101.408C102.967 101.6 103.007 101.832 103.039 102.104C103.071 102.36 103.087 102.632 103.087 102.92C103.103 103.208 103.111 103.496 103.111 103.784C103.111 104.072 103.111 104.336 103.111 104.576H103.351C103.591 104.576 103.871 104.568 104.191 104.552C104.511 104.536 104.823 104.544 105.127 104.576C105.447 104.608 105.735 104.688 105.991 104.816C106.247 104.928 106.439 105.128 106.567 105.416Z" fill="white"/>
<rect opacity="0.01" x="24" y="68" width="59" height="59" transform="rotate(-90 24 68)" fill="white"/>
<path d="M49.9425 23.3414L36.5889 51.1096C36.0262 52.2794 36.2737 53.6011 37.2345 54.5586C38.1953 55.5162 39.6758 55.9167 41.0981 55.6037L52.3314 53.1321V41.0307C52.3314 40.4738 52.8546 40.0223 53.5 40.0223C54.1454 40.0223 54.6686 40.4738 54.6686 41.0307V53.1321L65.9018 55.6037C67.3242 55.9167 68.8047 55.5162 69.7655 54.5586C70.7281 53.5991 70.9726 52.2774 70.4111 51.1095L57.0575 23.3413C56.4495 22.077 55.0864 21.2917 53.5 21.2917C51.9136 21.2917 50.5504 22.077 49.9425 23.3414Z" fill="#63B8FC"/>
</g>
<defs>
<clipPath id="clip0_9_2">
<rect width="106" height="137" fill="white"/>
</clipPath>
</defs>
</svg>
