<svg width="345" height="64" viewBox="0 0 345 64" fill="none" xmlns="http://www.w3.org/2000/svg">
<rect width="345" height="64" rx="15" fill="#F3F4F5"/>
<g opacity="0.01">
<rect x="305" y="20" width="24" height="24" fill="#F7F9FC"/>
</g>
<path d="M314.22 36.2197C313.927 36.5126 313.927 36.9874 314.22 37.2803C314.513 37.5732 314.987 37.5732 315.28 37.2803L320.28 32.2803C320.573 31.9874 320.573 31.5126 320.28 31.2197L315.28 26.2197C314.987 25.9268 314.513 25.9268 314.22 26.2197C313.927 26.5126 313.927 26.9874 314.22 27.2803L318.689 31.75L314.22 36.2197Z" fill="black"/>
<g opacity="0.01">
<rect x="16" y="20" width="24" height="24" fill="#F7F9FC"/>
</g>
<path fill-rule="evenodd" clip-rule="evenodd" d="M19 27.25C19 26.0072 20.0072 25 21.25 25H34.75C35.9928 25 37 26.0072 37 27.25V36.25C37 37.4928 35.9928 38.5 34.75 38.5H21.25C20.0072 38.5 19 37.4928 19 36.25V27.25ZM21.25 26.5C20.836 26.5 20.5 26.836 20.5 27.25V28H35.5V27.25C35.5 26.836 35.164 26.5 34.75 26.5H21.25ZM35.5 29.5H20.5V36.25C20.5 36.664 20.836 37 21.25 37H34.75C35.164 37 35.5 36.664 35.5 36.25V29.5ZM22 34.75C22 34.336 22.336 34 22.75 34H27.25C27.664 34 28 34.336 28 34.75C28 35.164 27.664 35.5 27.25 35.5H22.75C22.336 35.5 22 35.164 22 34.75Z" fill="black"/>
</svg>
