<svg width="60" height="60" viewBox="0 0 60 60" fill="none" xmlns="http://www.w3.org/2000/svg">
<g clip-path="url(#clip0_1_1287)">
<rect width="60" height="60" rx="30" fill="#F3F4F5"/>
<path d="M34.8317 24.03C34.8437 24.09 34.8437 24.15 34.8317 24.21C34.8317 24.27 34.8137 24.336 34.7777 24.408C34.7297 24.576 34.6757 24.726 34.6157 24.858C34.5437 25.026 34.4537 25.17 34.3457 25.29C34.2977 25.362 34.2497 25.434 34.2017 25.506C34.1657 25.566 34.1297 25.626 34.0937 25.686L33.8597 25.992L31.5557 29.322L31.1417 29.844V34.632C31.1177 34.692 31.1057 34.752 31.1057 34.812C31.1057 34.872 31.0997 34.938 31.0877 35.01C31.0637 35.07 31.0457 35.13 31.0337 35.19C31.0217 35.238 31.0037 35.292 30.9797 35.352C30.9557 35.4 30.9437 35.436 30.9437 35.46C30.9317 35.484 30.9197 35.502 30.9077 35.514C30.9077 35.526 30.9017 35.544 30.8897 35.568C30.8177 35.688 30.7157 35.796 30.5837 35.892C30.3197 36.024 30.0197 36.054 29.6837 35.982C29.4917 35.958 29.3477 35.898 29.2517 35.802C29.1917 35.766 29.1437 35.724 29.1077 35.676C29.0717 35.628 29.0357 35.574 28.9997 35.514C28.9757 35.442 28.9517 35.376 28.9277 35.316C28.9037 35.256 28.8857 35.196 28.8737 35.136C28.8497 35.076 28.8377 35.022 28.8377 34.974C28.8377 34.914 28.8377 34.86 28.8377 34.812V29.898L28.4417 29.286L26.1017 25.974L25.9037 25.65C25.8317 25.542 25.7417 25.416 25.6337 25.272C25.5377 25.14 25.4537 24.996 25.3817 24.84C25.3337 24.768 25.2917 24.696 25.2557 24.624C25.2317 24.54 25.2077 24.456 25.1837 24.372C25.1477 24.252 25.1417 24.132 25.1657 24.012C25.2017 23.856 25.2737 23.724 25.3817 23.616C25.5017 23.508 25.6277 23.424 25.7597 23.364C25.9277 23.244 26.1197 23.196 26.3357 23.22C26.4677 23.22 26.5817 23.244 26.6777 23.292C26.7737 23.34 26.8697 23.394 26.9657 23.454C27.0737 23.538 27.1757 23.628 27.2717 23.724C27.3797 23.82 27.4757 23.922 27.5597 24.03C27.6557 24.15 27.7457 24.264 27.8297 24.372C27.9137 24.468 27.9977 24.582 28.0817 24.714L28.1357 24.786C28.4237 25.17 28.6937 25.542 28.9457 25.902C29.1977 26.25 29.4617 26.628 29.7377 27.036C29.7617 27.06 29.7977 27.108 29.8457 27.18C29.8937 27.252 29.9477 27.336 30.0077 27.432C30.0557 27.348 30.0977 27.276 30.1337 27.216C30.1817 27.144 30.2177 27.096 30.2417 27.072C30.5177 26.664 30.7817 26.28 31.0337 25.92C31.2857 25.56 31.5557 25.188 31.8437 24.804L31.8797 24.732C31.9757 24.624 32.0597 24.516 32.1317 24.408C32.2157 24.288 32.3057 24.168 32.4017 24.048C32.5577 23.832 32.7677 23.646 33.0317 23.49C33.2237 23.358 33.4217 23.274 33.6257 23.238C33.8537 23.214 34.0517 23.262 34.2197 23.382C34.2917 23.43 34.3577 23.472 34.4177 23.508C34.4897 23.544 34.5497 23.586 34.5977 23.634C34.6937 23.742 34.7717 23.874 34.8317 24.03Z" fill="#1A1A1A"/>
</g>
<defs>
<clipPath id="clip0_1_1287">
<rect width="60" height="60" fill="white"/>
</clipPath>
</defs>
</svg>
