<svg width="165" height="49" viewBox="0 0 165 49" fill="none" xmlns="http://www.w3.org/2000/svg">
<rect width="165" height="49" rx="10" fill="#63B8FC"/>
<rect opacity="0.01" x="43" y="14" width="21" height="21" transform="rotate(90 43 14)" fill="white"/>
<path d="M33.7662 29.8955L38.5192 20.0118C38.7195 19.5955 38.6314 19.1251 38.2894 18.7842C37.9474 18.4434 37.4204 18.3009 36.9142 18.4123L32.9159 19.292V23.5993C32.9159 23.7975 32.7297 23.9582 32.5 23.9582C32.2703 23.9582 32.084 23.7975 32.084 23.5993V19.292L28.0858 18.4123C27.5795 18.3009 27.0526 18.4434 26.7106 18.7842C26.3679 19.1258 26.2809 19.5962 26.4808 20.0119L31.2338 29.8955C31.4501 30.3455 31.9353 30.625 32.5 30.625C33.0646 30.625 33.5499 30.3455 33.7662 29.8955Z" fill="white"/>
</svg>
