<svg width="24" height="24" viewBox="0 0 24 24" fill="none" xmlns="http://www.w3.org/2000/svg">
<circle cx="12" cy="12" r="12" fill="white"/>
<rect opacity="0.01" x="21" y="3" width="18" height="18" transform="rotate(90 21 3)" fill="white"/>
<path d="M13.0853 16.6247L17.1593 8.15301C17.331 7.79611 17.2555 7.39291 16.9624 7.10077C16.6692 6.80864 16.2175 6.68645 15.7836 6.78194L12.3565 7.53599V11.2279C12.3565 11.3978 12.1969 11.5356 12 11.5356C11.8031 11.5356 11.6435 11.3978 11.6435 11.2279V7.53599L8.21639 6.78194C7.78244 6.68645 7.33077 6.80862 7.03764 7.10077C6.74395 7.3935 6.66937 7.79675 6.84068 8.15303L10.9146 16.6247C11.1001 17.0104 11.516 17.25 12 17.25C12.484 17.25 12.8999 17.0104 13.0853 16.6247Z" fill="#1A87DD"/>
</svg>
