<svg width="345" height="49" viewBox="0 0 345 49" fill="none" xmlns="http://www.w3.org/2000/svg">
<rect width="345" height="49" rx="10" fill="#1A87DD"/>
<rect opacity="0.01" x="126" y="14" width="21" height="21" transform="rotate(90 126 14)" fill="white"/>
<path d="M116.766 29.8955L121.519 20.0118C121.719 19.5955 121.631 19.1251 121.289 18.7842C120.947 18.4434 120.42 18.3009 119.914 18.4123L115.916 19.292V23.5993C115.916 23.7975 115.73 23.9582 115.5 23.9582C115.27 23.9582 115.084 23.7975 115.084 23.5993V19.292L111.086 18.4123C110.58 18.3009 110.053 18.4434 109.711 18.7842C109.368 19.1258 109.281 19.5962 109.481 20.0119L114.234 29.8955C114.45 30.3455 114.935 30.625 115.5 30.625C116.065 30.625 116.55 30.3455 116.766 29.8955Z" fill="white"/>
</svg>
