<svg width="345" height="49" viewBox="0 0 345 49" fill="none" xmlns="http://www.w3.org/2000/svg">
<rect width="345" height="49" rx="10" fill="#72DB31"/>
<rect opacity="0.01" x="114" y="35" width="21" height="21" transform="rotate(-90 114 35)" fill="white"/>
<path d="M123.234 19.1045L118.481 28.9882C118.281 29.4045 118.369 29.8749 118.711 30.2158C119.053 30.5566 119.58 30.6991 120.086 30.5877L124.084 29.708V25.4007C124.084 25.2025 124.27 25.0418 124.5 25.0418C124.73 25.0418 124.916 25.2025 124.916 25.4007V29.708L128.914 30.5877C129.42 30.6991 129.947 30.5566 130.289 30.2158C130.632 29.8742 130.719 29.4038 130.519 28.9881L125.766 19.1045C125.55 18.6545 125.065 18.375 124.5 18.375C123.935 18.375 123.45 18.6545 123.234 19.1045Z" fill="#1A1A1A"/>
</svg>
