<svg width="24" height="24" viewBox="0 0 24 24" fill="none" xmlns="http://www.w3.org/2000/svg">
<circle cx="12" cy="12" r="12" fill="white"/>
<rect opacity="0.01" x="3" y="21" width="18" height="18" transform="rotate(-90 3 21)" fill="white"/>
<path d="M10.9147 7.37533L6.84068 15.847C6.66904 16.2039 6.74455 16.6071 7.03765 16.8992C7.33079 17.1914 7.78247 17.3135 8.21639 17.2181L11.6435 16.464V12.7721C11.6435 12.6022 11.8031 12.4644 12 12.4644C12.1969 12.4644 12.3565 12.6022 12.3565 12.7721V16.464L15.7836 17.2181C16.2176 17.3135 16.6692 17.1914 16.9624 16.8992C17.2561 16.6065 17.3306 16.2033 17.1593 15.847L13.0854 7.3753C12.8999 6.98959 12.484 6.75 12 6.75C11.516 6.75 11.1001 6.98959 10.9147 7.37533Z" fill="#F8BB18"/>
</svg>
