<svg width="165" height="49" viewBox="0 0 165 49" fill="none" xmlns="http://www.w3.org/2000/svg">
<g id="send_icon">
<rect id="Rectangle" opacity="0.01" x="32" y="35" width="21" height="21" transform="rotate(-90 32 35)" fill="white"/>
<rect id="Rectangle_2" width="165" height="49" rx="10" fill="#72DB31"/>
<path id="Path" d="M41.2338 19.1045L36.4808 28.9882C36.2805 29.4045 36.3686 29.8749 36.7106 30.2158C37.0526 30.5566 37.5796 30.6991 38.0858 30.5877L42.0841 29.708V25.4007C42.0841 25.2025 42.2703 25.0418 42.5 25.0418C42.7297 25.0418 42.916 25.2025 42.916 25.4007V29.708L46.9142 30.5877C47.4205 30.6991 47.9474 30.5566 48.2894 30.2158C48.6321 29.8742 48.7191 29.4038 48.5192 28.9881L43.7662 19.1045C43.5499 18.6545 43.0647 18.375 42.5 18.375C41.9354 18.375 41.4501 18.6545 41.2338 19.1045Z" fill="#1A1A1A"/>
</g>
</svg>
