<svg width="345" height="64" viewBox="0 0 345 64" fill="none" xmlns="http://www.w3.org/2000/svg">
<rect width="345" height="64" rx="15" fill="#F3F4F5"/>
<g opacity="0.01">
<rect x="305" y="20" width="24" height="24" fill="#F7F9FC"/>
</g>
<path d="M314.22 36.2197C313.927 36.5126 313.927 36.9874 314.22 37.2803C314.513 37.5732 314.987 37.5732 315.28 37.2803L320.28 32.2803C320.573 31.9874 320.573 31.5126 320.28 31.2197L315.28 26.2197C314.987 25.9268 314.513 25.9268 314.22 26.2197C313.927 26.5126 313.927 26.9874 314.22 27.2803L318.689 31.75L314.22 36.2197Z" fill="black"/>
<g opacity="0.01">
<rect x="16" y="20" width="24" height="24" fill="#F7F9FC"/>
</g>
<path fill-rule="evenodd" clip-rule="evenodd" d="M28.3072 24.5C28.1197 24.5 27.9329 24.5067 27.7484 24.5202C27.5257 24.5367 27.2894 24.731 27.2407 25.0677L27.1694 25.5575C27.0472 26.4005 26.4689 27.0268 25.8262 27.3717C25.7294 27.4235 25.6349 27.479 25.5419 27.536C24.9209 27.9222 24.0892 28.1097 23.2979 27.794L22.8374 27.6102C22.5209 27.4843 22.2352 27.5908 22.1084 27.776C21.8992 28.0827 21.7117 28.406 21.5489 28.7442C21.4514 28.9453 21.5017 29.2452 21.7687 29.456L22.1609 29.7657C22.8284 30.2922 23.0827 31.1045 23.0594 31.8342L23.0572 32L23.0594 32.1658C23.0827 32.8955 22.8284 33.7078 22.1609 34.2343L21.7687 34.544C21.5017 34.7547 21.4514 35.0547 21.5489 35.2557C21.7117 35.594 21.8992 35.9172 22.1084 36.224C22.2352 36.4093 22.5209 36.5157 22.8374 36.3897L23.2979 36.206C24.0892 35.8903 24.9209 36.0785 25.5419 36.464C25.6349 36.521 25.7294 36.5765 25.8262 36.6283C26.4689 36.9733 27.0472 37.5995 27.1694 38.4425L27.2407 38.9323C27.2894 39.269 27.5257 39.4632 27.7484 39.4797C27.9329 39.4932 28.1197 39.5 28.3072 39.5C28.4947 39.5 28.6814 39.4932 28.8659 39.4797C29.0894 39.4632 29.3249 39.269 29.3737 38.9323L29.4449 38.4425C29.5672 37.5995 30.1454 36.9733 30.7882 36.6283C30.8849 36.5765 30.9794 36.521 31.0732 36.464C31.6934 36.0785 32.5252 35.8903 33.3164 36.206L33.7769 36.3897C34.0934 36.5157 34.3792 36.4093 34.5059 36.224C34.7152 35.9172 34.9027 35.5932 35.0654 35.2557C35.1629 35.0547 35.1127 34.7547 34.8457 34.544L34.4534 34.2343C33.7859 33.7078 33.5317 32.8955 33.5549 32.1658L33.5572 32L33.5549 31.8342C33.5317 31.1045 33.7859 30.2922 34.4534 29.7657L34.8457 29.456C35.1127 29.2452 35.1629 28.9453 35.0654 28.7442C34.9027 28.4067 34.7152 28.0827 34.5059 27.776C34.3792 27.5908 34.0934 27.4843 33.7769 27.6102L33.3164 27.794C32.5252 28.1097 31.6934 27.9222 31.0732 27.536C30.9794 27.479 30.8849 27.4235 30.7882 27.3717C30.1454 27.0268 29.5672 26.4005 29.4449 25.5575L29.3737 25.0677C29.3249 24.731 29.0894 24.5367 28.8659 24.5202C28.6814 24.5067 28.4947 24.5 28.3072 24.5ZM27.6389 23.0247C27.8594 23.0082 28.0822 23 28.3072 23C28.5322 23 28.7549 23.0082 28.9754 23.0247C30.0142 23.1005 30.7252 23.9375 30.8579 24.8525L30.9292 25.3423C30.9667 25.6003 31.1602 25.8688 31.4977 26.0503C31.6222 26.117 31.7444 26.1875 31.8637 26.2625C32.1892 26.4643 32.5184 26.4973 32.7607 26.4005L33.2219 26.2167C34.0792 25.8747 35.1577 26.072 35.7442 26.93C35.9954 27.2983 36.2212 27.6867 36.4169 28.0918C36.8692 29.0293 36.4994 30.0628 35.7742 30.6343L35.3827 30.9433C35.1779 31.1045 35.0422 31.406 35.0542 31.7878C35.0564 31.8583 35.0572 31.9288 35.0572 32C35.0572 32.0712 35.0564 32.1417 35.0542 32.2122C35.0422 32.594 35.1779 32.8955 35.3827 33.0568L35.7742 33.3658C36.4994 33.9373 36.8692 34.9707 36.4169 35.9082C36.2212 36.3132 35.9954 36.7017 35.7442 37.07C35.1577 37.928 34.0792 38.1252 33.2219 37.7832L32.7607 37.5995C32.5184 37.5027 32.1892 37.5358 31.8637 37.7375C31.7444 37.8125 31.6222 37.883 31.4977 37.9497C31.1602 38.1313 30.9667 38.3997 30.9292 38.6578L30.8579 39.1475C30.7252 40.0625 30.0142 40.8995 28.9754 40.9753C28.7549 40.9918 28.5322 41 28.3072 41C28.0822 41 27.8594 40.9918 27.6389 40.9753C26.6009 40.8995 25.8892 40.0625 25.7564 39.1475L25.6852 38.6578C25.6477 38.3997 25.4542 38.1313 25.1167 37.9497C24.9922 37.883 24.8699 37.8125 24.7507 37.7375C24.4252 37.5358 24.0959 37.5027 23.8537 37.5995L23.3924 37.7832C22.5352 38.1252 21.4567 37.928 20.8702 37.07C20.6189 36.7017 20.3932 36.3132 20.1982 35.9082C19.7452 34.9707 20.1149 33.9373 20.8402 33.3658L21.2317 33.0568C21.4364 32.8955 21.5722 32.594 21.5602 32.2122C21.5579 32.1417 21.5572 32.0712 21.5572 32C21.5572 31.9288 21.5579 31.8583 21.5602 31.7878C21.5722 31.406 21.4364 31.1045 21.2317 30.9433L20.8402 30.6343C20.1149 30.0628 19.7452 29.0293 20.1982 28.0918C20.3932 27.6867 20.6189 27.2983 20.8702 26.93C21.4567 26.072 22.5352 25.8747 23.3924 26.2167L23.8537 26.4005C24.0959 26.4973 24.4252 26.4643 24.7507 26.2625C24.8699 26.1875 24.9922 26.117 25.1167 26.0503C25.4542 25.8688 25.6477 25.6003 25.6852 25.3423L25.7564 24.8525C25.8892 23.9375 26.6009 23.1005 27.6389 23.0247ZM28.3072 29.75C27.0644 29.75 26.0572 30.7572 26.0572 32C26.0572 33.2428 27.0644 34.25 28.3072 34.25C29.5499 34.25 30.5572 33.2428 30.5572 32C30.5572 30.7572 29.5499 29.75 28.3072 29.75ZM24.5572 32C24.5572 29.9292 26.2357 28.25 28.3072 28.25C30.3779 28.25 32.0572 29.9292 32.0572 32C32.0572 34.0708 30.3779 35.75 28.3072 35.75C26.2357 35.75 24.5572 34.0708 24.5572 32Z" fill="black"/>
</svg>
